<?xml version="1.0" encoding="utf-8"?>
<!-- Generator: Adobe Illustrator 21.1.0, SVG Export Plug-In . SVG Version: 6.00 Build 0)  -->
<svg version="1.1" id="Layer_1" xmlns="http://www.w3.org/2000/svg" xmlns:xlink="http://www.w3.org/1999/xlink" x="0px" y="0px"
	 viewBox="0 0 719.4 256.9" style="enable-background:new 0 0 719.4 256.9;" xml:space="preserve">
<g>
	<path d="M62.1,171.4l-19.5,16.2v69.3H0V9.4h42.6v133.9l69.3-61.7h57.7L92,146.5l81.9,110.4h-52L62.1,171.4z"/>
	<path d="M206,24.9c0-7.7,2.3-13.8,6.9-18.2c4.6-4.4,11.1-6.7,19.5-6.7c8.2,0,14.6,2.2,19.3,6.7c4.7,4.5,7,10.5,7,18.2
		c0,7.7-2.3,13.8-7,18.2c-4.7,4.5-11.1,6.7-19.3,6.7c-8.4,0-14.9-2.2-19.5-6.7C208.3,38.7,206,32.6,206,24.9z M211.1,81.2h42.6
		v175.7h-42.6V81.2z"/>
	<path d="M481.7,114.7c11.3-25.3,31.1-37.9,59.5-37.9c20.9,0,37.2,7.1,48.7,21.3c11.1,13.5,16.6,32.2,16.6,56.3v102.5h-42.9V154.4
		c0-13-3.1-22.8-9.4-29.4c-6.3-6.6-15-9.9-26.3-9.9c-11.3,0-20.6,4.9-27.8,14.8c-7.2,9.9-11.1,24.8-11.5,44.7v82.3h-42.6V154.4
		c0-13-3.1-22.8-9.4-29.4c-6.3-6.6-15-9.9-26.3-9.9c-11.3,0-21,5.1-29,15.2c-8.1,10.1-12.3,25.3-12.8,45.5v81.2h-42.6V81.5H363
		l4.7,30.3c11.5-23.3,30.1-35,55.6-35c14.7,0,26.9,3.4,36.6,10.1C469.6,93.7,476.8,103,481.7,114.7z"/>
	<path d="M666.7,24.9c0-7.7,2.3-13.8,6.9-18.2c4.6-4.4,11.1-6.7,19.5-6.7c8.2,0,14.6,2.2,19.3,6.7c4.7,4.5,7,10.5,7,18.2
		c0,7.7-2.3,13.8-7,18.2c-4.7,4.5-11.1,6.7-19.3,6.7c-8.4,0-14.9-2.2-19.5-6.7C669,38.7,666.7,32.6,666.7,24.9z M671.8,81.2h42.6
		v175.7h-42.6V81.2z"/>
</g>
</svg>
